<?xml version="1.0" encoding="UTF-8" standalone="no"?>
<!-- Created with Inkscape (http://www.inkscape.org/) -->

<svg
   width="309.71271"
   height="286.42572"
   viewBox="0 0 81.944823 75.783474"
   version="1.1"
   id="svg1"
   xml:space="preserve"
   xmlns:xlink="http://www.w3.org/1999/xlink"
   xmlns="http://www.w3.org/2000/svg"
   xmlns:svg="http://www.w3.org/2000/svg"><defs
     id="defs1"><linearGradient
       id="linearGradient2"><stop
         style="stop-color:#ffcc00;stop-opacity:1;"
         offset="0.50564736"
         id="stop2" /><stop
         style="stop-color:#fff9d9;stop-opacity:1;"
         offset="1"
         id="stop3" /></linearGradient><linearGradient
       xlink:href="#linearGradient2"
       id="linearGradient3"
       x1="58.530556"
       y1="106.75104"
       x2="105.91744"
       y2="63.968231"
       gradientUnits="userSpaceOnUse" /><linearGradient
       id="linearGradient2-1"><stop
         style="stop-color:#03730a;stop-opacity:1;"
         offset="0"
         id="stop2-8" /><stop
         style="stop-color:#40fa4c;stop-opacity:1;"
         offset="1"
         id="stop3-7" /></linearGradient><linearGradient
       xlink:href="#linearGradient2-1"
       id="linearGradient4"
       gradientUnits="userSpaceOnUse"
       x1="308.15894"
       y1="179.35136"
       x2="385.31943"
       y2="108.90048"
       gradientTransform="matrix(0.39674992,0,0,0.39674992,-6.2310201,65.957253)" /><filter
       style="color-interpolation-filters:sRGB"
       id="filter5"
       x="-0.091674305"
       y="-0.091531466"
       width="1.2352363"
       height="1.2348698"><feFlood
         result="flood"
         in="SourceGraphic"
         flood-opacity="0.498039"
         flood-color="rgb(0,0,0)"
         id="feFlood4" /><feGaussianBlur
         result="blur"
         in="SourceGraphic"
         stdDeviation="1.000000"
         id="feGaussianBlur4" /><feOffset
         result="offset"
         in="blur"
         dx="3.000000"
         dy="3.000000"
         id="feOffset4" /><feComposite
         result="comp1"
         operator="in"
         in="flood"
         in2="offset"
         id="feComposite4" /><feComposite
         result="comp2"
         operator="over"
         in="SourceGraphic"
         in2="comp1"
         id="feComposite5" /></filter></defs><g
     id="layer1"
     transform="translate(-76.831215,-73.577973)"><path
       style="fill:url(#linearGradient3);stroke:#322900;stroke-width:4.52516;stroke-dasharray:none;stroke-opacity:1"
       id="path1"
       d="m 106.68541,113.39382 c -1.93904,1.36358 -21.565433,-10.95517 -23.935646,-10.99175 -2.370212,-0.0366 -22.367376,11.6707 -24.263418,10.24794 -1.896043,-1.42277 3.754905,-23.895284 3.057256,-26.160793 C 60.845953,84.223709 43.532201,68.823025 44.299424,66.580122 45.066646,64.33722 68.185516,62.767201 70.124558,61.403617 72.063599,60.040033 81.360276,38.814603 83.730488,38.85118 86.1007,38.887757 94.738,60.389947 96.634042,61.812714 c 1.896042,1.422768 24.955458,3.705414 25.653108,5.970922 0.69765,2.265509 -17.08308,17.124611 -17.8503,19.367514 -0.76722,2.242903 4.1876,24.87909 2.24856,26.24267 z"
       transform="matrix(0.8680124,0,0,0.9073882,40.380328,40.378052)" /><g
       id="g1"
       transform="matrix(0.98300035,0,0,0.96127036,8.9310045,5.5811636)"
       style="stroke-width:2.09655;stroke-dasharray:none;filter:url(#filter5)"><path
         d="m 125.19803,107.80647 v 14.52406 h -14.52836 v 7.31861 h 14.52836 v 14.52406 h 7.31882 v -14.52406 h 14.51954 v -7.31861 h -14.51954 v -14.52406 z"
         style="fill:#000000;fill-opacity:0.661242;stroke:none;stroke-width:2.09655;stroke-dasharray:none"
         id="path4-9"
         transform="translate(1.1875e-6)" /><path
         d="m 123.95034,106.50009 v 14.52406 h -14.52836 v 7.31861 h 14.52836 v 14.52406 h 7.31882 v -14.52406 h 14.51954 v -7.31861 h -14.51954 v -14.52406 z"
         style="fill:url(#linearGradient4);fill-opacity:1;stroke:#002900;stroke-width:2.09655;stroke-dasharray:none"
         id="path4" /></g></g></svg>
