<?xml version="1.0" encoding="UTF-8" standalone="no"?>
<!-- Created with Inkscape (http://www.inkscape.org/) -->

<svg
   width="75.34507mm"
   height="82.901207mm"
   viewBox="0 0 75.34507 82.901207"
   version="1.1"
   id="svg1"
   xml:space="preserve"
   xmlns:xlink="http://www.w3.org/1999/xlink"
   xmlns="http://www.w3.org/2000/svg"
   xmlns:svg="http://www.w3.org/2000/svg"><defs
     id="defs1"><linearGradient
       id="linearGradient6"><stop
         style="stop-color:#5d5d5d;stop-opacity:1;"
         offset="0"
         id="stop6" /><stop
         style="stop-color:#e5e5e5;stop-opacity:1;"
         offset="1"
         id="stop7" /></linearGradient><linearGradient
       id="linearGradient4"><stop
         style="stop-color:#515151;stop-opacity:1;"
         offset="0"
         id="stop4" /><stop
         style="stop-color:#ececec;stop-opacity:1;"
         offset="1"
         id="stop5" /></linearGradient><linearGradient
       xlink:href="#linearGradient4"
       id="linearGradient5"
       x1="65.819496"
       y1="150.87221"
       x2="132.97124"
       y2="150.87221"
       gradientUnits="userSpaceOnUse" /><linearGradient
       xlink:href="#linearGradient6"
       id="linearGradient7"
       x1="61.011169"
       y1="111.2564"
       x2="136.35623"
       y2="111.2564"
       gradientUnits="userSpaceOnUse" /></defs><g
     id="layer1"
     transform="translate(-67.36705,-106.98065)"><g
       id="layer1-2"
       transform="translate(6.3558828,8.5176436)"><g
         id="g9"
         transform="translate(0,5.6003775)"><rect
           style="fill:url(#linearGradient7);fill-opacity:1;stroke:#313131;stroke-width:4.30912;stroke-linejoin:round;stroke-opacity:1"
           id="rect2"
           width="71.035942"
           height="11.603"
           x="63.16573"
           y="105.4549" /><rect
           style="fill:none;fill-opacity:1;stroke:#313131;stroke-width:4.99999;stroke-linejoin:round;stroke-opacity:1"
           id="rect3"
           width="17.134964"
           height="9.6565552"
           x="90.116219"
           y="95.362617" /></g><g
         id="g32"><rect
           style="fill:url(#linearGradient5);fill-opacity:1;stroke:#313131;stroke-width:4.28;stroke-linecap:butt;stroke-linejoin:round;stroke-opacity:1"
           id="rect1"
           width="62.871742"
           height="56.70401"
           x="67.959496"
           y="122.5202" /><rect
           style="fill:none;fill-opacity:1;stroke:#5b5b5b;stroke-width:3.664;stroke-linecap:butt;stroke-linejoin:round;stroke-dasharray:none;stroke-dashoffset:0;stroke-opacity:1"
           id="rect4"
           width="0.27281687"
           height="33.958118"
           x="81.672363"
           y="134.65393" /><rect
           style="fill:none;fill-opacity:1;stroke:#676767;stroke-width:3.664;stroke-linecap:butt;stroke-linejoin:round;stroke-dasharray:none;stroke-dashoffset:0;stroke-opacity:1"
           id="rect4-3"
           width="0.27281687"
           height="33.958118"
           x="100.0599"
           y="134.82524" /><rect
           style="fill:none;fill-opacity:1;stroke:#797979;stroke-width:3.664;stroke-linecap:butt;stroke-linejoin:round;stroke-dasharray:none;stroke-dashoffset:0;stroke-opacity:1"
           id="rect4-3-8"
           width="0.27281687"
           height="33.958118"
           x="118.44743"
           y="134.99655" /></g></g><path
       d="m 125.07404,134.66744 c -1.71677,0 -3.43298,0.65782 -4.74846,1.97329 l -14.86456,14.86456 -14.691062,-14.69106 c -1.315473,-1.31547 -3.03249,-1.97329 -4.749154,-1.97329 -1.716664,0 -3.432976,0.65782 -4.74845,1.97329 -2.630947,2.63094 -2.630947,6.86736 0,9.49831 l 14.69036,14.69035 -14.327155,14.32716 c -2.630948,2.63095 -2.630948,6.86736 0,9.49831 2.630947,2.63095 6.867362,2.63095 9.498309,0 l 14.327152,-14.32715 14.50065,14.50065 c 2.63095,2.63093 6.86737,2.63093 9.49832,0 2.63094,-2.63095 2.63094,-6.86666 0,-9.49761 l -14.50135,-14.50136 14.86455,-14.86454 c 2.63095,-2.63095 2.63095,-6.86666 0,-9.49762 -1.31547,-1.31547 -3.03239,-1.97329 -4.74915,-1.97329 z"
       style="fill:#ec0000;fill-opacity:1;stroke:#140000;stroke-width:4.5173;stroke-linejoin:round;stroke-opacity:1"
       id="path1" /></g></svg>
