<?xml version="1.0" encoding="UTF-8" standalone="no"?>
<!-- Created with Inkscape (http://www.inkscape.org/) -->

<svg
   width="119.6878mm"
   height="129.38493mm"
   viewBox="0 0 119.6878 129.38493"
   version="1.1"
   id="svg1"
   xmlns:xlink="http://www.w3.org/1999/xlink"
   xmlns="http://www.w3.org/2000/svg"
   xmlns:svg="http://www.w3.org/2000/svg">
  <defs
     id="defs1">
    <linearGradient
       id="linearGradient4">
      <stop
         style="stop-color:#e3e5e6;stop-opacity:1;"
         offset="0"
         id="stop3" />
      <stop
         style="stop-color:#f1f3f4;stop-opacity:1;"
         offset="1"
         id="stop4" />
    </linearGradient>
    <linearGradient
       xlink:href="#linearGradient4"
       id="linearGradient3"
       gradientUnits="userSpaceOnUse"
       x1="45.840115"
       y1="229.66374"
       x2="207.75316"
       y2="176.05193"
       gradientTransform="translate(-25.996366,-147.5531)" />
  </defs>
  <g
     id="layer1"
     transform="translate(-19.843749,-17.418171)">
    <path
       d="m 81.790854,32.091234 c -14.741712,-0.55319 -29.517685,4.81825 -40.562383,15.65073 -17.671515,17.33198 -21.551226,44.48924 -9.439734,66.076066 12.111492,21.58684 37.310728,32.42797 61.312537,26.37875 24.001796,-6.04922 41.050806,-27.53816 41.484286,-52.286726 l -20.58789,-0.36174 C 113.72533,103.0967 103.14722,116.42959 88.067994,120.23004 72.988765,124.03049 57.354873,117.30366 49.745781,103.74164 42.13669,90.179634 44.543998,73.331754 55.646196,62.442874 c 8.572014,-8.40731 20.595898,-11.56313 31.804258,-8.94209 l -11.92408,16.75681 42.606956,-2.42539 -10.93623,-45.46866 -10.348616,13.40748 c -6.58647,-2.98974 -8.05064,-3.41684 -15.05763,-3.67979 z"
       style="fill:url(#linearGradient3);fill-opacity:1;stroke:#646a6d;stroke-width:9.892;stroke-linecap:round;stroke-linejoin:round;stroke-dasharray:none;stroke-opacity:1"
       id="path9-6" />
  </g>
</svg>
